<svg xmlns="http://www.w3.org/2000/svg" width="32" height="32" viewBox="0 0 24 24" fill="none" stroke="#4CAF50" stroke-width="2" stroke-linecap="round" stroke-linejoin="round" class="feather feather-flower">
  <path d="M12 22c6.5-1 9-6.5 9-11 0-4.5-2.5-8-9-8s-9 3.5-9 8c0 4.5 2.5 10 9 11z"></path>
  <path d="M12 8v14"></path>
  <path d="M12 8a2 2 0 100-4 2 2 0 000 4z"></path>
  <path d="M12 8a2 2 0 110-4 2 2 0 010 4z"></path>
  <path d="M12 8a2 2 0 100-4 2 2 0 000 4z"></path>
  <path d="M12 8a2 2 0 110-4 2 2 0 010 4z"></path>
</svg>
